<svg width="130" height="39" viewBox="0 0 130 39" fill="none" xmlns="http://www.w3.org/2000/svg">
<path d="M27.2595 29.3885V29.7707H20.3567L11.3874 19.833H5.80364V29.7707H0V0C4.88033 0 9.76066 0.0424684 14.641 0.0424684C21.8955 0.0849368 25.7207 4.75652 25.7207 9.89527C25.7207 13.9723 23.7861 18.0918 17.9385 19.2384L27.2595 29.3885ZM14.641 5.26615H5.80364V14.7792H14.641C18.3342 14.7792 19.917 12.4009 19.917 10.0227C19.917 7.64441 18.2903 5.26615 14.641 5.26615Z" fill="#3E297B"/>
<path d="M50.7293 21.1495H33.802C34.1537 23.7401 36.484 25.6088 40.2651 25.6088C42.2437 25.6088 44.8377 24.8868 46.0688 23.6552L49.4982 26.9253C47.2119 29.2186 43.4747 30.3228 40.1772 30.3228C32.7028 30.3228 28.2622 25.8636 28.2622 19.1535C28.2622 12.7832 32.7468 8.19651 39.7815 8.19651C47.036 8.19651 51.5646 12.5283 50.7293 21.1495ZM33.8899 16.8602H45.5851C45.2334 14.1422 43.0351 12.7832 39.9574 12.7832C37.0555 12.7832 34.6813 14.1422 33.8899 16.8602Z" fill="#3E297B"/>
<path d="M76.1865 29.7707H70.8225V18.8138C70.8225 15.6286 69.0199 13.2078 65.5904 13.2078C62.2929 13.2078 60.0506 15.8834 60.0506 19.0686V29.7707H54.7306V8.79108H59.523L59.8747 11.6365C62.0731 9.55552 64.2714 8.49379 66.9974 8.49379C72.0976 8.49379 76.1865 12.1886 76.1865 18.7713V29.7707Z" fill="#3E297B"/>
<path d="M82.0499 3.48246L87.4138 2.93036V8.87601H93.3934V13.3353H87.3699V22.3811C87.3699 24.3772 88.513 25.354 90.1838 25.354C91.0191 25.354 91.9864 25.0992 92.7778 24.7169L94.2727 29.1337C92.7338 29.7283 91.4588 29.9831 89.832 30.0256C85.1276 30.1954 82.0499 27.6048 82.0499 22.3811V13.3353H78.0049V8.87601H82.0499V3.48246Z" fill="#3E297B"/>
<path d="M97.4125 0.0849368H102.733V29.7707H97.4125V0.0849368Z" fill="#3E297B"/>
<path d="M123.762 8.83354H129.698L116.464 38.5193H110.572L114.617 29.431L105.956 8.83354H112.199L115.496 17.8794L117.563 23.7826L119.805 18.0068L123.762 8.83354Z" fill="#3E297B"/>
<path d="M3.96121 36.6917L4.51985 37.2373C4.07294 37.663 3.49568 37.8608 2.86876 37.8608C1.25492 37.8608 0.572136 36.7876 0.565929 35.6964C0.559722 34.5992 1.29837 33.484 2.86876 33.484C3.45844 33.484 4.01708 33.6999 4.46399 34.1256L3.91776 34.6352C3.63224 34.3654 3.2474 34.2395 2.86876 34.2395C1.81976 34.2395 1.36664 34.9949 1.37285 35.6964C1.37906 36.3919 1.79493 37.1174 2.86876 37.1174C3.2474 37.1174 3.67569 36.9675 3.96121 36.6917Z" fill="#3E297B"/>
<path d="M6.80183 34.7491C7.77635 34.7491 8.40326 35.4446 8.40326 36.29C8.40326 37.1414 7.80118 37.8309 6.80804 37.8309C5.8149 37.8309 5.21902 37.1414 5.21902 36.29C5.21902 35.4446 5.82732 34.7491 6.80183 34.7491ZM6.80804 35.4146C6.26181 35.4146 5.97629 35.8463 5.97629 36.29C5.97629 36.7397 6.25561 37.1593 6.80804 37.1593C7.36047 37.1593 7.63979 36.7397 7.63979 36.29C7.63979 35.8463 7.31702 35.4146 6.80804 35.4146Z" fill="#3E297B"/>
<path d="M12.2158 37.7649H11.4585V36.1821C11.4585 35.7923 11.2475 35.4386 10.8316 35.4386C10.4219 35.4386 10.1799 35.7923 10.1799 36.1821V37.7649H9.42259V34.8031H10.124L10.1799 35.1628C10.3412 34.863 10.695 34.7551 10.9868 34.7551C11.353 34.7551 11.7192 34.899 11.893 35.3067C12.1661 34.887 12.5199 34.7671 12.9172 34.7671C13.7862 34.7671 14.2145 35.2827 14.2145 36.1701V37.7649H13.4572V36.1701C13.4572 35.7804 13.2896 35.4506 12.8799 35.4506C12.4703 35.4506 12.2158 35.7923 12.2158 36.1821V37.7649Z" fill="#3E297B"/>
<path d="M16.4893 37.7649H15.732V35.4926H15.161V34.851H15.732V34.6532C15.732 33.8618 16.2844 33.496 16.8989 33.496C17.1658 33.496 17.4452 33.58 17.6934 33.7358L17.4141 34.2814C17.2527 34.1795 17.1038 34.1256 16.9486 34.1256C16.6879 34.1256 16.4893 34.2934 16.4893 34.6532V34.851H17.3893V35.4926H16.4893V37.7649Z" fill="#3E297B"/>
<path d="M19.6692 34.7491C20.6437 34.7491 21.2706 35.4446 21.2706 36.29C21.2706 37.1414 20.6685 37.8309 19.6754 37.8309C18.6823 37.8309 18.0864 37.1414 18.0864 36.29C18.0864 35.4446 18.6947 34.7491 19.6692 34.7491ZM19.6754 35.4146C19.1292 35.4146 18.8437 35.8463 18.8437 36.29C18.8437 36.7397 19.123 37.1593 19.6754 37.1593C20.2278 37.1593 20.5072 36.7397 20.5072 36.29C20.5072 35.8463 20.1844 35.4146 19.6754 35.4146Z" fill="#3E297B"/>
<path d="M22.2899 34.8091H22.9914L23.0472 35.1508C23.2831 34.7851 23.5996 34.7311 23.91 34.7311C24.2266 34.7311 24.5307 34.851 24.6983 35.0129L24.3569 35.6484C24.2017 35.5225 24.059 35.4566 23.8107 35.4566C23.4134 35.4566 23.0472 35.6604 23.0472 36.206V37.7649H22.2899V34.8091Z" fill="#3E297B"/>
<path d="M25.9822 34.0536L26.7395 33.9757V34.8151H27.5836V35.4446H26.7333V36.7217C26.7333 37.0035 26.8946 37.1414 27.1305 37.1414C27.2484 37.1414 27.385 37.1054 27.4967 37.0514L27.7078 37.675C27.4905 37.7589 27.3105 37.7949 27.0809 37.8009C26.4167 37.8249 25.9822 37.4591 25.9822 36.7217V35.4446H25.4112V34.8151H25.9822V34.0536Z" fill="#3E297B"/>
<path d="M31.0498 35.2168L31.0746 34.8091H31.8008V37.7649H31.087L31.0498 37.3332C30.876 37.681 30.398 37.8488 30.0566 37.8548C29.1504 37.8608 28.48 37.3212 28.48 36.284C28.48 35.2647 29.1814 34.7311 30.0753 34.7371C30.4849 34.7371 30.876 34.923 31.0498 35.2168ZM30.1435 35.3906C29.6408 35.3906 29.2373 35.7204 29.2373 36.284C29.2373 36.8476 29.6408 37.1833 30.1435 37.1833C31.3353 37.1833 31.3353 35.3906 30.1435 35.3906Z" fill="#3E297B"/>
<path d="M34.5727 35.4206C34.0947 35.4206 33.6851 35.7684 33.6851 36.284C33.6851 36.8176 34.0947 37.1533 34.5727 37.1533C35.0568 37.1533 35.4417 36.7996 35.4417 36.284C35.4417 35.7504 35.0568 35.4206 34.5727 35.4206ZM32.8781 33.574H33.6354V35.2108C33.8154 34.905 34.3182 34.7371 34.641 34.7371C35.5348 34.7371 36.1989 35.2647 36.1989 36.284C36.1989 37.2553 35.5224 37.8309 34.6223 37.8309C34.2499 37.8309 33.8713 37.7109 33.6354 37.3572L33.5858 37.7649H32.8781V33.574Z" fill="#3E297B"/>
<path d="M38.0114 34.7971V37.7649H37.2541V34.7971H38.0114ZM37.1859 33.9757C37.1859 34.5453 38.0797 34.5453 38.0797 33.9757C38.0797 33.4061 37.1859 33.4061 37.1859 33.9757Z" fill="#3E297B"/>
<path d="M39.1934 33.574H39.9444V37.7649H39.1934V33.574Z" fill="#3E297B"/>
<path d="M41.8596 34.7971V37.7649H41.1023V34.7971H41.8596ZM41.034 33.9757C41.034 34.5453 41.9278 34.5453 41.9278 33.9757C41.9278 33.4061 41.034 33.4061 41.034 33.9757Z" fill="#3E297B"/>
<path d="M43.3519 34.0536L44.1092 33.9757V34.8151H44.9533V35.4446H44.103V36.7217C44.103 37.0035 44.2643 37.1414 44.5002 37.1414C44.6181 37.1414 44.7547 37.1054 44.8664 37.0514L45.0775 37.675C44.8602 37.7589 44.6802 37.7949 44.4506 37.8009C43.7864 37.8249 43.3519 37.4591 43.3519 36.7217V35.4446H42.7808V34.8151H43.3519V34.0536Z" fill="#3E297B"/>
<path d="M48.331 34.8091H49.1689L47.3006 39H46.4688L47.0399 37.7169L45.8171 34.8091H46.6985L47.164 36.0861L47.4558 36.9195L47.7723 36.1041L48.331 34.8091Z" fill="#3E297B"/>
<path d="M54.2134 35.2168L54.2382 34.8091H54.9645V37.7649H54.2506L54.2134 37.3332C54.0396 37.681 53.5617 37.8488 53.2203 37.8548C52.314 37.8608 51.6437 37.3212 51.6437 36.284C51.6437 35.2647 52.3451 34.7311 53.2389 34.7371C53.6485 34.7371 54.0396 34.923 54.2134 35.2168ZM53.3072 35.3906C52.8044 35.3906 52.4009 35.7204 52.4009 36.284C52.4009 36.8476 52.8044 37.1833 53.3072 37.1833C54.4989 37.1833 54.4989 35.3906 53.3072 35.3906Z" fill="#3E297B"/>
<path d="M59.1128 37.7649H58.3556V36.218C58.3556 35.7684 58.1011 35.4266 57.6169 35.4266C57.1514 35.4266 56.8348 35.8043 56.8348 36.254V37.7649H56.0838V34.8031H56.7603L56.81 35.2048C57.1204 34.911 57.4307 34.7611 57.8156 34.7611C58.5356 34.7611 59.1128 35.2827 59.1128 36.212V37.7649Z" fill="#3E297B"/>
<path d="M61.7437 35.4206C61.2595 35.4206 60.8747 35.7504 60.8747 36.284C60.8747 36.7996 61.2595 37.1533 61.7437 37.1533C62.2216 37.1533 62.6313 36.8176 62.6313 36.284C62.6313 35.7684 62.2216 35.4206 61.7437 35.4206ZM62.6809 33.574H63.4382V37.7649H62.7306L62.6809 37.3572C62.4451 37.7109 62.0664 37.8309 61.694 37.8309C60.794 37.8309 60.1174 37.2553 60.1174 36.284C60.1174 35.2647 60.7816 34.7371 61.6754 34.7371C61.9982 34.7371 62.5009 34.905 62.6809 35.2108V33.574Z" fill="#3E297B"/>
<path d="M68.7472 35.2168L68.772 34.8091H69.4983V37.7649H68.7845L68.7472 37.3332C68.5734 37.681 68.0955 37.8488 67.7541 37.8548C66.8478 37.8608 66.1775 37.3212 66.1775 36.284C66.1775 35.2647 66.8789 34.7311 67.7727 34.7371C68.1824 34.7371 68.5734 34.923 68.7472 35.2168ZM67.841 35.3906C67.3382 35.3906 66.9347 35.7204 66.9347 36.284C66.9347 36.8476 67.3382 37.1833 67.841 37.1833C69.0327 37.1833 69.0327 35.3906 67.841 35.3906Z" fill="#3E297B"/>
<path d="M72.8195 36.9075L73.3285 37.3872C72.9747 37.7229 72.6023 37.8548 72.1491 37.8548C71.2615 37.8548 70.5229 37.3392 70.5229 36.29C70.5229 35.2407 71.2615 34.7251 72.1491 34.7251C72.5836 34.7251 72.9188 34.845 73.254 35.1628L72.7761 35.6484C72.5961 35.4926 72.3726 35.4146 72.1616 35.4146C71.6526 35.4146 71.2801 35.7744 71.2801 36.29C71.2801 36.8536 71.6774 37.1533 72.1491 37.1533C72.3912 37.1533 72.6333 37.0874 72.8195 36.9075Z" fill="#3E297B"/>
<path d="M76.2742 36.9075L76.7831 37.3872C76.4293 37.7229 76.0569 37.8548 75.6038 37.8548C74.7162 37.8548 73.9775 37.3392 73.9775 36.29C73.9775 35.2407 74.7162 34.7251 75.6038 34.7251C76.0383 34.7251 76.3735 34.845 76.7086 35.1628L76.2307 35.6484C76.0507 35.4926 75.8272 35.4146 75.6162 35.4146C75.1072 35.4146 74.7348 35.7744 74.7348 36.29C74.7348 36.8536 75.132 37.1533 75.6038 37.1533C75.8459 37.1533 76.0879 37.0874 76.2742 36.9075Z" fill="#3E297B"/>
<path d="M80.7687 36.5478H78.3789C78.4286 36.9135 78.7576 37.1773 79.2914 37.1773C79.5707 37.1773 79.9369 37.0754 80.1107 36.9015L80.5949 37.3632C80.2721 37.687 79.7445 37.8428 79.279 37.8428C78.2238 37.8428 77.5968 37.2133 77.5968 36.266C77.5968 35.3667 78.23 34.7191 79.2231 34.7191C80.2473 34.7191 80.8866 35.3307 80.7687 36.5478ZM78.3914 35.9422H80.0424C79.9928 35.5585 79.6824 35.3667 79.2479 35.3667C78.8383 35.3667 78.5031 35.5585 78.3914 35.9422Z" fill="#3E297B"/>
<path d="M84.2695 35.1148L83.8474 35.5945C83.6302 35.3966 83.3819 35.3307 83.0902 35.3307C82.7302 35.3307 82.5315 35.4386 82.5315 35.6245C82.5315 35.8163 82.7115 35.9242 83.1026 35.9482C83.6799 35.9842 84.4123 36.1101 84.4123 36.8955C84.4123 37.4172 83.9716 37.8668 83.0964 37.8668C82.6122 37.8668 82.1281 37.7889 81.6812 37.3392L82.0536 36.8176C82.2708 37.0514 82.7674 37.2253 83.1088 37.2313C83.3943 37.2373 83.6612 37.0934 83.6612 36.8775C83.6612 36.6737 83.4874 36.5898 83.0529 36.5658C82.4757 36.5238 81.7867 36.32 81.7867 35.6484C81.7867 34.9649 82.5191 34.7251 83.0778 34.7251C83.5557 34.7251 83.9157 34.8151 84.2695 35.1148Z" fill="#3E297B"/>
<path d="M86.1516 34.7971V37.7649H85.3943V34.7971H86.1516ZM85.326 33.9757C85.326 34.5453 86.2199 34.5453 86.2199 33.9757C86.2199 33.4061 85.326 33.4061 85.326 33.9757Z" fill="#3E297B"/>
<path d="M89.0281 35.4206C88.5501 35.4206 88.1405 35.7684 88.1405 36.284C88.1405 36.8176 88.5501 37.1533 89.0281 37.1533C89.5122 37.1533 89.8971 36.7996 89.8971 36.284C89.8971 35.7504 89.5122 35.4206 89.0281 35.4206ZM87.3336 33.574H88.0908V35.2108C88.2708 34.905 88.7736 34.7371 89.0964 34.7371C89.9902 34.7371 90.6543 35.2647 90.6543 36.284C90.6543 37.2553 89.9778 37.8309 89.0778 37.8309C88.7053 37.8309 88.3267 37.7109 88.0908 37.3572L88.0412 37.7649H87.3336V33.574Z" fill="#3E297B"/>
<path d="M92.4668 34.7971V37.7649H91.7096V34.7971H92.4668ZM91.6413 33.9757C91.6413 34.5453 92.5351 34.5453 92.5351 33.9757C92.5351 33.4061 91.6413 33.4061 91.6413 33.9757Z" fill="#3E297B"/>
<path d="M93.6488 33.574H94.3999V37.7649H93.6488V33.574Z" fill="#3E297B"/>
<path d="M96.315 34.7971V37.7649H95.5577V34.7971H96.315ZM95.4894 33.9757C95.4894 34.5453 96.3833 34.5453 96.3833 33.9757C96.3833 33.4061 95.4894 33.4061 95.4894 33.9757Z" fill="#3E297B"/>
<path d="M97.8073 34.0536L98.5646 33.9757V34.8151H99.4087V35.4446H98.5584V36.7217C98.5584 37.0035 98.7197 37.1414 98.9556 37.1414C99.0735 37.1414 99.2101 37.1054 99.3218 37.0514L99.5329 37.675C99.3156 37.7589 99.1356 37.7949 98.906 37.8009C98.2418 37.8249 97.8073 37.4591 97.8073 36.7217V35.4446H97.2362V34.8151H97.8073V34.0536Z" fill="#3E297B"/>
<path d="M102.786 34.8091H103.624L101.756 39H100.924L101.495 37.7169L100.272 34.8091H101.154L101.619 36.0861L101.911 36.9195L102.228 36.1041L102.786 34.8091Z" fill="#3E297B"/>
</svg>
