<svg width="143" height="44" viewBox="0 0 143 44" fill="none" xmlns="http://www.w3.org/2000/svg">
<path d="M30.0553 32.9027V33.3242H22.4446L12.5554 22.3672H6.39888V33.3242H0V0.5C5.38088 0.5 10.7618 0.546824 16.1426 0.546824C24.1412 0.593648 28.3587 5.74437 28.3587 11.4102C28.3587 15.9053 26.2257 20.4473 19.7784 21.7116L30.0553 32.9027ZM16.1426 6.30627H6.39888V16.795H16.1426C20.2146 16.795 21.9598 14.1728 21.9598 11.5506C21.9598 8.92846 20.1662 6.30627 16.1426 6.30627Z" fill="#3E297B"/>
<path d="M55.9323 23.8187H37.2689C37.6567 26.675 40.2259 28.7353 44.3949 28.7353C46.5763 28.7353 49.4364 27.9393 50.7938 26.5814L54.5749 30.1869C52.0542 32.7154 47.9337 33.9329 44.2979 33.9329C36.057 33.9329 31.1608 29.0163 31.1608 21.618C31.1608 14.5943 36.1054 9.53718 43.8617 9.53718C51.8603 9.53718 56.8533 14.3133 55.9323 23.8187ZM37.3658 19.0894H50.2605C49.8727 16.0926 47.4489 14.5943 44.0556 14.5943C40.8561 14.5943 38.2384 16.0926 37.3658 19.0894Z" fill="#3E297B"/>
<path d="M84.0005 33.3242H78.0863V21.2434C78.0863 17.7315 76.0988 15.0625 72.3177 15.0625C68.6819 15.0625 66.2096 18.0125 66.2096 21.5243V33.3242H60.344V10.1927H65.6279L66.0157 13.33C68.4396 11.0356 70.8634 9.86495 73.8689 9.86495C79.4922 9.86495 84.0005 13.9387 84.0005 21.1965V33.3242Z" fill="#3E297B"/>
<path d="M90.4652 4.33963L96.3794 3.73091V10.2864H102.972V15.203H96.3309V25.1766C96.3309 27.3774 97.5913 28.4544 99.4334 28.4544C100.354 28.4544 101.421 28.1734 102.293 27.752L103.942 32.6218C102.245 33.2773 100.839 33.5583 99.0456 33.6051C93.8586 33.7924 90.4652 30.9361 90.4652 25.1766V15.203H86.0054V10.2864H90.4652V4.33963Z" fill="#3E297B"/>
<path d="M107.404 0.593648H113.269V33.3242H107.404V0.593648Z" fill="#3E297B"/>
<path d="M136.456 10.2395H143L128.409 42.9701H121.913L126.373 32.9496L116.823 10.2395H123.706L127.342 20.2132L129.621 26.7219L132.093 20.3537L136.456 10.2395Z" fill="#3E297B"/>
<path d="M4.36749 40.9549L4.98342 41.5565C4.49068 42.0258 3.85421 42.244 3.16299 42.244C1.38363 42.244 0.630817 41.0607 0.623973 39.8576C0.617129 38.6479 1.43153 37.4183 3.16299 37.4183C3.81315 37.4183 4.42908 37.6563 4.92183 38.1256L4.31958 38.6875C4.00477 38.39 3.58046 38.2512 3.16299 38.2512C2.00641 38.2512 1.50681 39.0841 1.51366 39.8576C1.5205 40.6244 1.97903 41.4243 3.16299 41.4243C3.58046 41.4243 4.05268 41.259 4.36749 40.9549Z" fill="#3E297B"/>
<path d="M7.49945 38.8131C8.57392 38.8131 9.26514 39.5799 9.26514 40.512C9.26514 41.4507 8.60129 42.2109 7.5063 42.2109C6.4113 42.2109 5.75431 41.4507 5.75431 40.512C5.75431 39.5799 6.42499 38.8131 7.49945 38.8131ZM7.5063 39.5469C6.90405 39.5469 6.58924 40.0228 6.58924 40.512C6.58924 41.0078 6.89721 41.4706 7.5063 41.4706C8.11539 41.4706 8.42336 41.0078 8.42336 40.512C8.42336 40.0228 8.06748 39.5469 7.5063 39.5469Z" fill="#3E297B"/>
<path d="M13.4687 42.1382H12.6337V40.393C12.6337 39.9633 12.4011 39.5733 11.9425 39.5733C11.4908 39.5733 11.2239 39.9633 11.2239 40.393V42.1382H10.389V38.8726H11.1623L11.2239 39.2692C11.4019 38.9387 11.792 38.8197 12.1136 38.8197C12.5174 38.8197 12.9212 38.9784 13.1128 39.4279C13.4139 38.9652 13.804 38.8329 14.242 38.8329C15.2001 38.8329 15.6724 39.4015 15.6724 40.3798V42.1382H14.8374V40.3798C14.8374 39.9501 14.6526 39.5866 14.201 39.5866C13.7493 39.5866 13.4687 39.9633 13.4687 40.393V42.1382Z" fill="#3E297B"/>
<path d="M18.1805 42.1382H17.3455V39.6328H16.7159V38.9255H17.3455V38.7073C17.3455 37.8348 17.9546 37.4315 18.6322 37.4315C18.9264 37.4315 19.2344 37.5241 19.5082 37.6959L19.2002 38.2975C19.0223 38.1851 18.858 38.1256 18.6869 38.1256C18.3995 38.1256 18.1805 38.3107 18.1805 38.7073V38.9255H19.1728V39.6328H18.1805V42.1382Z" fill="#3E297B"/>
<path d="M21.6865 38.8131C22.761 38.8131 23.4522 39.5799 23.4522 40.512C23.4522 41.4507 22.7884 42.2109 21.6934 42.2109C20.5984 42.2109 19.9414 41.4507 19.9414 40.512C19.9414 39.5799 20.6121 38.8131 21.6865 38.8131ZM21.6934 39.5469C21.0911 39.5469 20.7763 40.0228 20.7763 40.512C20.7763 41.0078 21.0843 41.4706 21.6934 41.4706C22.3025 41.4706 22.6104 41.0078 22.6104 40.512C22.6104 40.0228 22.2546 39.5469 21.6934 39.5469Z" fill="#3E297B"/>
<path d="M24.5761 38.8792H25.3494L25.411 39.256C25.6711 38.8528 26.0201 38.7933 26.3623 38.7933C26.7113 38.7933 27.0467 38.9255 27.2315 39.104L26.8551 39.8047C26.684 39.6659 26.5266 39.5932 26.2528 39.5932C25.8148 39.5932 25.411 39.8179 25.411 40.4195V42.1382H24.5761V38.8792Z" fill="#3E297B"/>
<path d="M28.647 38.0463L29.482 37.9604V38.8858H30.4127V39.5799H29.4751V40.988C29.4751 41.2987 29.6531 41.4507 29.9131 41.4507C30.0432 41.4507 30.1937 41.4111 30.3169 41.3516L30.5496 42.0391C30.3101 42.1316 30.1116 42.1713 29.8584 42.1779C29.1261 42.2043 28.647 41.8011 28.647 40.988V39.5799H28.0174V38.8858H28.647V38.0463Z" fill="#3E297B"/>
<path d="M34.2344 39.3287L34.2617 38.8792H35.0624V42.1382H34.2754L34.2344 41.6623C34.0427 42.0457 33.5158 42.2308 33.1394 42.2374C32.1402 42.244 31.4011 41.649 31.4011 40.5054C31.4011 39.3816 32.1744 38.7933 33.1599 38.7999C33.6116 38.7999 34.0427 39.0048 34.2344 39.3287ZM33.2352 39.5204C32.6808 39.5204 32.236 39.884 32.236 40.5054C32.236 41.1268 32.6808 41.497 33.2352 41.497C34.5492 41.497 34.5492 39.5204 33.2352 39.5204Z" fill="#3E297B"/>
<path d="M38.1186 39.5535C37.5916 39.5535 37.1399 39.9369 37.1399 40.5054C37.1399 41.0938 37.5916 41.4639 38.1186 41.4639C38.6524 41.4639 39.0767 41.0739 39.0767 40.5054C39.0767 39.9171 38.6524 39.5535 38.1186 39.5535ZM36.2503 37.5174H37.0852V39.3221C37.2837 38.985 37.838 38.7999 38.1939 38.7999C39.1794 38.7999 39.9116 39.3816 39.9116 40.5054C39.9116 41.5763 39.1657 42.2109 38.1733 42.2109C37.7627 42.2109 37.3453 42.0787 37.0852 41.6887L37.0304 42.1382H36.2503V37.5174Z" fill="#3E297B"/>
<path d="M41.91 38.866V42.1382H41.0751V38.866H41.91ZM40.9998 37.9604C40.9998 38.5884 41.9853 38.5884 41.9853 37.9604C41.9853 37.3324 40.9998 37.3324 40.9998 37.9604Z" fill="#3E297B"/>
<path d="M43.2132 37.5174H44.0413V42.1382H43.2132V37.5174Z" fill="#3E297B"/>
<path d="M46.1529 38.866V42.1382H45.3179V38.866H46.1529ZM45.2426 37.9604C45.2426 38.5884 46.2281 38.5884 46.2281 37.9604C46.2281 37.3324 45.2426 37.3324 45.2426 37.9604Z" fill="#3E297B"/>
<path d="M47.7982 38.0463L48.6332 37.9604V38.8858H49.5639V39.5799H48.6263V40.988C48.6263 41.2987 48.8043 41.4507 49.0643 41.4507C49.1944 41.4507 49.3449 41.4111 49.4681 41.3516L49.7008 42.0391C49.4613 42.1316 49.2628 42.1713 49.0096 42.1779C48.2773 42.2043 47.7982 41.8011 47.7982 40.988V39.5799H47.1686V38.8858H47.7982V38.0463Z" fill="#3E297B"/>
<path d="M53.288 38.8792H54.2119L52.1519 43.5H51.2349L51.8645 42.0853L50.5163 38.8792H51.4881L52.0014 40.2873L52.323 41.2061L52.672 40.3071L53.288 38.8792Z" fill="#3E297B"/>
<path d="M59.7737 39.3287L59.8011 38.8792H60.6018V42.1382H59.8148L59.7737 41.6623C59.5821 42.0457 59.0551 42.2308 58.6787 42.2374C57.6796 42.244 56.9404 41.649 56.9404 40.5054C56.9404 39.3816 57.7138 38.7933 58.6993 38.7999C59.151 38.7999 59.5821 39.0048 59.7737 39.3287ZM58.7746 39.5204C58.2202 39.5204 57.7754 39.884 57.7754 40.5054C57.7754 41.1268 58.2202 41.497 58.7746 41.497C60.0885 41.497 60.0885 39.5204 58.7746 39.5204Z" fill="#3E297B"/>
<path d="M65.1757 42.1382H64.3407V40.4327C64.3407 39.9369 64.0602 39.5601 63.5263 39.5601C63.0131 39.5601 62.664 39.9766 62.664 40.4724V42.1382H61.8359V38.8726H62.5819L62.6367 39.3155C62.9788 38.9916 63.321 38.8263 63.7453 38.8263C64.5392 38.8263 65.1757 39.4015 65.1757 40.4261V42.1382Z" fill="#3E297B"/>
<path d="M68.0763 39.5535C67.5425 39.5535 67.1182 39.9171 67.1182 40.5054C67.1182 41.0739 67.5425 41.4639 68.0763 41.4639C68.6033 41.4639 69.055 41.0938 69.055 40.5054C69.055 39.9369 68.6033 39.5535 68.0763 39.5535ZM69.1098 37.5174H69.9447V42.1382H69.1645L69.1098 41.6887C68.8497 42.0787 68.4322 42.2109 68.0216 42.2109C67.0293 42.2109 66.2833 41.5763 66.2833 40.5054C66.2833 39.3816 67.0156 38.7999 68.0011 38.7999C68.3569 38.7999 68.9113 38.985 69.1098 39.3221V37.5174Z" fill="#3E297B"/>
<path d="M75.7982 39.3287L75.8256 38.8792H76.6263V42.1382H75.8393L75.7982 41.6623C75.6066 42.0457 75.0796 42.2308 74.7032 42.2374C73.704 42.244 72.9649 41.649 72.9649 40.5054C72.9649 39.3816 73.7382 38.7933 74.7237 38.7999C75.1754 38.7999 75.6066 39.0048 75.7982 39.3287ZM74.799 39.5204C74.2447 39.5204 73.7998 39.884 73.7998 40.5054C73.7998 41.1268 74.2447 41.497 74.799 41.497C76.113 41.497 76.113 39.5204 74.799 39.5204Z" fill="#3E297B"/>
<path d="M80.2882 41.1929L80.8494 41.7218C80.4593 42.0919 80.0486 42.2374 79.5491 42.2374C78.5704 42.2374 77.756 41.6689 77.756 40.512C77.756 39.3552 78.5704 38.7867 79.5491 38.7867C80.0281 38.7867 80.3977 38.9189 80.7672 39.2692L80.2403 39.8047C80.0418 39.6328 79.7954 39.5469 79.5627 39.5469C79.0015 39.5469 78.5909 39.9435 78.5909 40.512C78.5909 41.1334 79.0289 41.4639 79.5491 41.4639C79.816 41.4639 80.0829 41.3912 80.2882 41.1929Z" fill="#3E297B"/>
<path d="M84.0971 41.1929L84.6583 41.7218C84.2682 42.0919 83.8576 42.2374 83.358 42.2374C82.3794 42.2374 81.565 41.6689 81.565 40.512C81.565 39.3552 82.3794 38.7867 83.358 38.7867C83.8371 38.7867 84.2066 38.9189 84.5762 39.2692L84.0492 39.8047C83.8508 39.6328 83.6044 39.5469 83.3717 39.5469C82.8105 39.5469 82.3999 39.9435 82.3999 40.512C82.3999 41.1334 82.8379 41.4639 83.358 41.4639C83.6249 41.4639 83.8918 41.3912 84.0971 41.1929Z" fill="#3E297B"/>
<path d="M89.0526 40.7963H86.4178C86.4725 41.1995 86.8353 41.4904 87.4238 41.4904C87.7318 41.4904 88.1356 41.378 88.3272 41.1863L88.861 41.6953C88.5051 42.0523 87.9234 42.2242 87.4101 42.2242C86.2467 42.2242 85.5555 41.5301 85.5555 40.4856C85.5555 39.494 86.2535 38.7801 87.3485 38.7801C88.4778 38.7801 89.1827 39.4543 89.0526 40.7963ZM86.4315 40.1286H88.2519C88.1972 39.7055 87.855 39.494 87.3759 39.494C86.9242 39.494 86.5547 39.7055 86.4315 40.1286Z" fill="#3E297B"/>
<path d="M92.9125 39.2164L92.4472 39.7452C92.2076 39.5271 91.9339 39.4543 91.6122 39.4543C91.2153 39.4543 90.9963 39.5733 90.9963 39.7783C90.9963 39.9898 91.1948 40.1088 91.6259 40.1352C92.2624 40.1749 93.0699 40.3137 93.0699 41.1797C93.0699 41.7548 92.584 42.2506 91.6191 42.2506C91.0853 42.2506 90.5515 42.1647 90.0587 41.6689L90.4693 41.0938C90.7089 41.3516 91.2564 41.5433 91.6328 41.5499C91.9476 41.5565 92.2419 41.3978 92.2419 41.1599C92.2419 40.9351 92.0502 40.8426 91.5712 40.8161C90.9347 40.7698 90.1751 40.5451 90.1751 39.8047C90.1751 39.0511 90.9826 38.7867 91.5985 38.7867C92.1255 38.7867 92.5225 38.8858 92.9125 39.2164Z" fill="#3E297B"/>
<path d="M94.9876 38.866V42.1382H94.1527V38.866H94.9876ZM94.0774 37.9604C94.0774 38.5884 95.0629 38.5884 95.0629 37.9604C95.0629 37.3324 94.0774 37.3324 94.0774 37.9604Z" fill="#3E297B"/>
<path d="M98.1592 39.5535C97.6322 39.5535 97.1805 39.9369 97.1805 40.5054C97.1805 41.0938 97.6322 41.4639 98.1592 41.4639C98.693 41.4639 99.1173 41.0739 99.1173 40.5054C99.1173 39.9171 98.693 39.5535 98.1592 39.5535ZM96.2908 37.5174H97.1258V39.3221C97.3242 38.985 97.8786 38.7999 98.2344 38.7999C99.2199 38.7999 99.9522 39.3816 99.9522 40.5054C99.9522 41.5763 99.2063 42.2109 98.2139 42.2109C97.8033 42.2109 97.3858 42.0787 97.1258 41.6887L97.071 42.1382H96.2908V37.5174Z" fill="#3E297B"/>
<path d="M101.951 38.866V42.1382H101.116V38.866H101.951ZM101.04 37.9604C101.04 38.5884 102.026 38.5884 102.026 37.9604C102.026 37.3324 101.04 37.3324 101.04 37.9604Z" fill="#3E297B"/>
<path d="M103.254 37.5174H104.082V42.1382H103.254V37.5174Z" fill="#3E297B"/>
<path d="M106.193 38.866V42.1382H105.358V38.866H106.193ZM105.283 37.9604C105.283 38.5884 106.269 38.5884 106.269 37.9604C106.269 37.3324 105.283 37.3324 105.283 37.9604Z" fill="#3E297B"/>
<path d="M107.839 38.0463L108.674 37.9604V38.8858H109.604V39.5799H108.667V40.988C108.667 41.2987 108.845 41.4507 109.105 41.4507C109.235 41.4507 109.385 41.4111 109.509 41.3516L109.741 42.0391C109.502 42.1316 109.303 42.1713 109.05 42.1779C108.318 42.2043 107.839 41.8011 107.839 40.988V39.5799H107.209V38.8858H107.839V38.0463Z" fill="#3E297B"/>
<path d="M113.329 38.8792H114.252L112.192 43.5H111.275L111.905 42.0853L110.557 38.8792H111.529L112.042 40.2873L112.364 41.2061L112.713 40.3071L113.329 38.8792Z" fill="#3E297B"/>
</svg>
